{
	"asset":{
		"generator":"Khronos glTF Blender I/O v4.0.43",
		"version":"2.0"
	},
	"extensionsUsed":[
		"KHR_materials_specular",
		"KHR_materials_sheen",
		"KHR_materials_ior"
	],
	"scene":0,
	"scenes":[
		{
			"name":"Scene",
			"nodes":[
				0
			]
		}
	],
	"nodes":[
		{
			"mesh":0,
			"name":"4",
			"rotation":[
				0.7071068286895752,
				0,
				0,
				0.7071068286895752
			]
		}
	],
	"materials":[
		{
			"doubleSided":true,
			"extensions":{
				"KHR_materials_specular":{
					"specularFactor":0.15000000596046448
				},
				"KHR_materials_sheen":{
					"sheenColorFactor":[
						1.0,
						1.0,
						1.0
					],
					"sheenRoughnessFactor":0.3909090757369995
				},
				"KHR_materials_ior":{
					"ior":1.4500000476837158
				}
			},
			"name":"FABRIC_1_FRONT_2447",
			"pbrMetallicRoughness":{
				"baseColorTexture":{
					"index":0
				},
				"metallicFactor":0
			}
		}
	],
	"meshes":[
		{
			"name":"4",
			"primitives":[
				{
					"attributes":{
						"POSITION":0,
						"NORMAL":1,
						"TEXCOORD_0":2
					},
					"indices":3,
					"material":0
				}
			]
		}
	],
	"textures":[
		{
			"sampler":0,
			"source":0
		}
	],
	"images":[
		{
			"mimeType":"image/png",
			"name":"black",
			"uri":"black.webp"
		}
	],
	"accessors":[
		{
			"bufferView":0,
			"componentType":5126,
			"count":71471,
			"max":[
				0.3627970516681671,
				0.17397300899028778,
				0.34696054458618164
			],
			"min":[
				-0.35401496291160583,
				-0.1810159981250763,
				-0.3146214485168457
			],
			"type":"VEC3"
		},
		{
			"bufferView":1,
			"componentType":5126,
			"count":71471,
			"type":"VEC3"
		},
		{
			"bufferView":2,
			"componentType":5126,
			"count":71471,
			"type":"VEC2"
		},
		{
			"bufferView":3,
			"componentType":5125,
			"count":414858,
			"type":"SCALAR"
		}
	],
	"bufferViews":[
		{
			"buffer":0,
			"byteLength":857652,
			"byteOffset":0,
			"target":34962
		},
		{
			"buffer":0,
			"byteLength":857652,
			"byteOffset":857652,
			"target":34962
		},
		{
			"buffer":0,
			"byteLength":571768,
			"byteOffset":1715304,
			"target":34962
		},
		{
			"buffer":0,
			"byteLength":1659432,
			"byteOffset":2287072,
			"target":34963
		}
	],
	"samplers":[
		{
			"magFilter":9729,
			"minFilter":9987
		}
	],
	"buffers":[
		{
			"byteLength":3946504,
			"uri":"model.bin"
		}
	]
}
