{
	"asset":{
		"generator":"Khronos glTF Blender I/O v4.0.43",
		"version":"2.0"
	},
	"extensionsUsed":[
		"KHR_materials_sheen"
	],
	"scene":0,
	"scenes":[
		{
			"name":"Scene",
			"nodes":[
				0
			]
		}
	],
	"nodes":[
		{
			"mesh":0,
			"name":"cloth_parent.006",
			"scale":[
				0.0010000000474974513,
				0.0010000000474974513,
				0.0010000000474974513
			]
		}
	],
	"materials":[
		{
			"doubleSided":true,
			"extensions":{
				"KHR_materials_sheen":{
					"sheenRoughnessFactor":1
				}
			},
			"name":"Fabric Long Sleeve",
			"pbrMetallicRoughness":{
				"baseColorTexture":{
					"index":0
				},
				"metallicFactor":0
			}
		}
	],
	"meshes":[
		{
			"name":"cloth_shape_0.006",
			"primitives":[
				{
					"attributes":{
						"POSITION":0,
						"NORMAL":1,
						"TEXCOORD_0":2
					},
					"indices":3,
					"material":0
				}
			]
		}
	],
	"textures":[
		{
			"sampler":0,
			"source":0
		}
	],
	"images":[
		{
			"mimeType":"image/webp",
			"name":"black",
			"uri":"black.webp"
		}
	],
	"accessors":[
		{
			"bufferView":0,
			"componentType":5126,
			"count":25366,
			"max":[
				566.9227905273438,
				235.335205078125,
				145.89657592773438
			],
			"min":[
				-562.7643432617188,
				-339.26806640625,
				-128.58456420898438
			],
			"type":"VEC3"
		},
		{
			"bufferView":1,
			"componentType":5126,
			"count":25366,
			"type":"VEC3"
		},
		{
			"bufferView":2,
			"componentType":5126,
			"count":25366,
			"type":"VEC2"
		},
		{
			"bufferView":3,
			"componentType":5123,
			"count":123519,
			"type":"SCALAR"
		}
	],
	"bufferViews":[
		{
			"buffer":0,
			"byteLength":304392,
			"byteOffset":0,
			"target":34962
		},
		{
			"buffer":0,
			"byteLength":304392,
			"byteOffset":304392,
			"target":34962
		},
		{
			"buffer":0,
			"byteLength":202928,
			"byteOffset":608784,
			"target":34962
		},
		{
			"buffer":0,
			"byteLength":247038,
			"byteOffset":811712,
			"target":34963
		}
	],
	"samplers":[
		{
			"magFilter":9729,
			"minFilter":9987
		}
	],
	"buffers":[
		{
			"byteLength":1058752,
			"uri":"model.bin"
		}
	]
}
