{
	"asset":{
		"generator":"Khronos glTF Blender I/O v4.0.43",
		"version":"2.0"
	},
	"extensionsUsed":[
		"KHR_materials_sheen"
	],
	"scene":0,
	"scenes":[
		{
			"name":"Scene",
			"nodes":[
				0
			]
		}
	],
	"nodes":[
		{
			"mesh":0,
			"name":"Plane.002",
			"rotation":[
				0,
				-0.7071068286895752,
				0,
				0.7071068286895752
			],
			"scale":[
				0.6999999284744263,
				0.699999988079071,
				0.6999999284744263
			]
		}
	],
	"materials":[
		{
			"doubleSided":true,
			"extensions":{
				"KHR_materials_sheen":{
					"sheenRoughnessFactor":1
				}
			},
			"name":"Fabric Pants.001",
			"pbrMetallicRoughness":{
				"baseColorTexture":{
					"index":0
				},
				"metallicFactor":0
			}
		}
	],
	"meshes":[
		{
			"name":"Plane.002",
			"primitives":[
				{
					"attributes":{
						"POSITION":0,
						"NORMAL":1,
						"TEXCOORD_0":2,
						"TEXCOORD_1":3
					},
					"indices":4,
					"material":0
				}
			]
		}
	],
	"textures":[
		{
			"sampler":0,
			"source":0
		}
	],
	"images":[
		{
			"mimeType":"image/webp",
			"name":"black",
			"uri":"black.webp"
		}
	],
	"accessors":[
		{
			"bufferView":0,
			"componentType":5126,
			"count":26576,
			"max":[
				0.18971051275730133,
				0.2700817584991455,
				0.3319825828075409
			],
			"min":[
				-0.19049271941184998,
				-0.28832530975341797,
				-0.33004388213157654
			],
			"type":"VEC3"
		},
		{
			"bufferView":1,
			"componentType":5126,
			"count":26576,
			"type":"VEC3"
		},
		{
			"bufferView":2,
			"componentType":5126,
			"count":26576,
			"type":"VEC2"
		},
		{
			"bufferView":3,
			"componentType":5126,
			"count":26576,
			"type":"VEC2"
		},
		{
			"bufferView":4,
			"componentType":5123,
			"count":153600,
			"type":"SCALAR"
		}
	],
	"bufferViews":[
		{
			"buffer":0,
			"byteLength":318912,
			"byteOffset":0,
			"target":34962
		},
		{
			"buffer":0,
			"byteLength":318912,
			"byteOffset":318912,
			"target":34962
		},
		{
			"buffer":0,
			"byteLength":212608,
			"byteOffset":637824,
			"target":34962
		},
		{
			"buffer":0,
			"byteLength":212608,
			"byteOffset":850432,
			"target":34962
		},
		{
			"buffer":0,
			"byteLength":307200,
			"byteOffset":1063040,
			"target":34963
		}
	],
	"samplers":[
		{
			"magFilter":9729,
			"minFilter":9987
		}
	],
	"buffers":[
		{
			"byteLength":1370240,
			"uri":"model.bin"
		}
	]
}
