{
	"asset":{
		"generator":"Khronos glTF Blender I/O v4.0.43",
		"version":"2.0"
	},
	"extensionsUsed":[
		"KHR_materials_sheen",
		"EXT_texture_webp"
	],
	"extensionsRequired":[
		"EXT_texture_webp"
	],
	"scene":0,
	"scenes":[
		{
			"name":"Scene",
			"nodes":[
				0
			]
		}
	],
	"nodes":[
		{
			"mesh":0,
			"name":"Pattern_78399.001",
			"rotation":[
				0.70710688829422,
				0,
				0,
				0.7071066498756409
			],
			"scale":[
				0.0010000000474974513,
				0.0010000001639127731,
				0.0010000001639127731
			]
		}
	],
	"materials":[
		{
			"doubleSided":true,
			"extensions":{
				"KHR_materials_sheen":{
					"sheenRoughnessFactor":1
				}
			},
			"name":"Fabric Pants",
			"pbrMetallicRoughness":{
				"baseColorTexture":{
					"index":0
				},
				"metallicFactor":0
			}
		}
	],
	"meshes":[
		{
			"name":"Pattern_78399.001",
			"primitives":[
				{
					"attributes":{
						"POSITION":0,
						"NORMAL":1,
						"TEXCOORD_0":2,
						"TEXCOORD_1":3
					},
					"indices":4,
					"material":0
				}
			]
		}
	],
	"textures":[
		{
			"extensions":{
				"EXT_texture_webp":{
					"source":0
				}
			},
			"sampler":0
		}
	],
	"images":[
		{
			"mimeType":"image/webp",
			"name":"black",
			"uri":"black.webp"
		}
	],
	"accessors":[
		{
			"bufferView":0,
			"componentType":5126,
			"count":8510,
			"max":[
				195.08973693847656,
				126.62948608398438,
				560.4807739257812
			],
			"min":[
				-188.59666442871094,
				-155.71568298339844,
				-488.97271728515625
			],
			"type":"VEC3"
		},
		{
			"bufferView":1,
			"componentType":5126,
			"count":8510,
			"type":"VEC3"
		},
		{
			"bufferView":2,
			"componentType":5126,
			"count":8510,
			"type":"VEC2"
		},
		{
			"bufferView":3,
			"componentType":5126,
			"count":8510,
			"type":"VEC2"
		},
		{
			"bufferView":4,
			"componentType":5123,
			"count":45360,
			"type":"SCALAR"
		}
	],
	"bufferViews":[
		{
			"buffer":0,
			"byteLength":102120,
			"byteOffset":0,
			"target":34962
		},
		{
			"buffer":0,
			"byteLength":102120,
			"byteOffset":102120,
			"target":34962
		},
		{
			"buffer":0,
			"byteLength":68080,
			"byteOffset":204240,
			"target":34962
		},
		{
			"buffer":0,
			"byteLength":68080,
			"byteOffset":272320,
			"target":34962
		},
		{
			"buffer":0,
			"byteLength":90720,
			"byteOffset":340400,
			"target":34963
		}
	],
	"samplers":[
		{
			"magFilter":9729,
			"minFilter":9987
		}
	],
	"buffers":[
		{
			"byteLength":431120,
			"uri":"model.bin"
		}
	]
}
